<?xml version="1.0" standalone="no"?>
<!DOCTYPE svg PUBLIC "-//W3C//DTD SVG 20010904//EN"
 "http://www.w3.org/TR/2001/REC-SVG-20010904/DTD/svg10.dtd">
<svg version="1.0" xmlns="http://www.w3.org/2000/svg"
 viewBox="0 0 2600.000000 2600.000000"
 preserveAspectRatio="xMidYMid meet">
<metadata>
Created by potrace 1.15, written by Peter Selinger 2001-2017
</metadata>
<g transform="translate(0.000000,2600.000000) scale(0.100000,-0.100000)"
fill="#000000" stroke="none">
<path d="M13512 24288 c-99 -12 -242 -49 -336 -87 -391 -156 -617 -498 -667
-1006 -11 -116 -7 -332 7 -404 7 -33 6 -34 -17 -27 -13 4 -47 10 -75 13 -193
20 -319 -296 -211 -530 45 -98 128 -157 237 -166 l65 -6 8 -65 c19 -155 158
-489 325 -778 l71 -123 -42 -18 c-23 -10 -103 -47 -177 -81 -74 -34 -317 -143
-540 -242 -815 -362 -962 -431 -1104 -520 -266 -166 -497 -400 -655 -661 -293
-485 -466 -1300 -531 -2497 -28 -527 -50 -763 -105 -1135 -56 -377 -109 -781
-170 -1295 -31 -261 -71 -592 -90 -735 -72 -545 -93 -773 -101 -1085 -10 -345
19 -644 85 -865 58 -197 60 -251 19 -470 -11 -60 -21 -145 -21 -187 -1 -69 3
-84 38 -155 31 -63 57 -97 139 -178 56 -55 131 -120 168 -145 l67 -45 0 -60
c0 -33 -51 -2188 -113 -4790 -62 -2601 -109 -4745 -105 -4764 19 -86 126 -129
199 -79 19 13 41 37 49 53 12 25 34 831 128 4799 80 3409 115 4771 124 4776 6
4 39 10 74 13 127 12 174 48 271 209 36 59 76 116 90 127 32 25 100 36 137 22
15 -6 71 -55 125 -109 89 -91 103 -102 177 -130 44 -16 107 -35 139 -42 83
-17 107 -44 144 -161 109 -341 145 -670 162 -1479 13 -611 21 -743 75 -1231
55 -487 105 -979 145 -1414 67 -728 101 -1017 191 -1595 72 -467 242 -1419
323 -1810 57 -276 70 -386 63 -519 -15 -267 -105 -434 -393 -731 -163 -169
-228 -264 -240 -354 -22 -155 159 -286 435 -316 332 -36 775 114 997 337 74
75 109 142 149 283 58 207 122 269 329 324 119 32 158 54 191 109 75 130 43
282 -164 769 -165 388 -154 350 -215 748 -152 987 -218 1714 -236 2595 -5 259
-15 652 -21 875 -9 311 -9 433 0 525 29 299 93 487 302 892 119 231 168 361
194 518 19 115 34 380 35 611 0 247 24 440 72 587 22 70 77 187 88 187 7 0 90
-324 120 -472 95 -472 137 -900 147 -1503 8 -554 -9 -939 -92 -2020 -88 -1153
-99 -1365 -99 -1940 0 -486 6 -619 49 -1055 40 -413 48 -573 42 -890 -6 -304
-18 -455 -63 -765 -29 -198 -29 -317 1 -430 57 -215 197 -367 396 -430 109
-34 262 -49 509 -49 296 -1 435 25 547 101 92 62 129 180 112 358 -10 108 -25
183 -85 414 -93 362 -94 437 -20 877 45 265 49 332 51 914 1 594 1 585 61 995
35 234 82 490 159 858 190 900 245 1192 284 1507 31 246 41 422 51 945 12 615
17 685 80 1195 65 529 71 775 27 1126 -31 240 -35 434 -12 530 8 34 30 113 48
175 19 63 40 147 47 186 l12 73 51 15 c70 21 183 19 323 -6 159 -28 260 -23
330 15 104 56 234 215 315 384 l40 82 -23 31 c-17 23 -23 47 -26 102 -5 100
45 436 119 797 95 468 99 505 109 910 10 402 19 473 81 650 127 359 145 453
194 970 14 151 37 349 50 440 42 294 49 410 48 755 0 224 -8 439 -23 670 -16
252 -24 504 -30 970 -6 475 -12 661 -24 755 -54 422 -140 737 -278 1014 -100
200 -189 327 -337 480 -189 194 -367 308 -655 418 -174 66 -305 124 -576 253
-455 217 -617 282 -890 359 -145 42 -320 95 -327 101 -2 1 24 60 56 131 76
166 127 313 147 425 l17 89 46 0 c204 0 332 214 277 463 -19 86 -59 153 -119
201 -34 27 -47 31 -100 31 -34 0 -74 -4 -88 -8 l-25 -8 7 58 c4 32 8 123 8
203 2 493 -165 869 -479 1079 -234 156 -580 229 -898 189z"/>
</g>
</svg>
